<mxfile host="app.diagrams.net" modified="2023-05-02T17:28:26.924Z" agent="Mozilla/5.0 (Windows NT 10.0; Win64; x64) AppleWebKit/537.36 (KHTML, like Gecko) Chrome/112.0.0.0 Safari/537.36 Edg/112.0.1722.64" etag="5-6jFVamm7jDSQ7CruTO" version="21.2.4" type="device">
  <diagram name="PÃ¡gina-1" id="8xWmKCfFB1EbKUILFAAP">
    <mxGraphModel dx="356" dy="686" grid="1" gridSize="10" guides="1" tooltips="1" connect="1" arrows="1" fold="1" page="1" pageScale="1" pageWidth="827" pageHeight="1169" math="0" shadow="0">
      <root>
        <mxCell id="0" />
        <mxCell id="1" parent="0" />
        <mxCell id="lukgx9Le6L5EiLMDG1qi-1" style="edgeStyle=orthogonalEdgeStyle;rounded=0;orthogonalLoop=1;jettySize=auto;html=1;exitX=0.5;exitY=1.2;exitDx=0;exitDy=0;entryX=0.5;entryY=0;entryDx=0;entryDy=0;entryPerimeter=0;strokeWidth=2;exitPerimeter=0;" edge="1" parent="1" source="lukgx9Le6L5EiLMDG1qi-5" target="lukgx9Le6L5EiLMDG1qi-8">
          <mxGeometry relative="1" as="geometry" />
        </mxCell>
        <mxCell id="lukgx9Le6L5EiLMDG1qi-2" value="retriveAllInfo()" style="edgeLabel;html=1;align=center;verticalAlign=middle;resizable=0;points=[];" vertex="1" connectable="0" parent="lukgx9Le6L5EiLMDG1qi-1">
          <mxGeometry x="0.2276" y="-1" relative="1" as="geometry">
            <mxPoint x="1" y="-6" as="offset" />
          </mxGeometry>
        </mxCell>
        <mxCell id="lukgx9Le6L5EiLMDG1qi-3" style="edgeStyle=orthogonalEdgeStyle;rounded=0;orthogonalLoop=1;jettySize=auto;html=1;exitX=0;exitY=0.75;exitDx=0;exitDy=0;entryX=0;entryY=0.5;entryDx=0;entryDy=0;entryPerimeter=0;strokeWidth=2;" edge="1" parent="1" source="lukgx9Le6L5EiLMDG1qi-5" target="lukgx9Le6L5EiLMDG1qi-8">
          <mxGeometry relative="1" as="geometry">
            <Array as="points">
              <mxPoint x="1590" y="485" />
              <mxPoint x="1590" y="675" />
            </Array>
          </mxGeometry>
        </mxCell>
        <mxCell id="lukgx9Le6L5EiLMDG1qi-4" value="changeOwner(newOwner)" style="edgeLabel;html=1;align=center;verticalAlign=middle;resizable=0;points=[];" vertex="1" connectable="0" parent="lukgx9Le6L5EiLMDG1qi-3">
          <mxGeometry x="0.027" relative="1" as="geometry">
            <mxPoint as="offset" />
          </mxGeometry>
        </mxCell>
        <mxCell id="lukgx9Le6L5EiLMDG1qi-5" value="&lt;font style=&quot;&quot;&gt;&lt;b style=&quot;&quot;&gt;&lt;font style=&quot;font-size: 12px;&quot;&gt;CarFactory Contract&lt;/font&gt;&lt;br&gt;&lt;/b&gt;&lt;/font&gt;" style="shape=image;html=1;verticalAlign=top;verticalLabelPosition=bottom;labelBackgroundColor=#ffffff;imageAspect=0;aspect=fixed;image=https://cdn2.iconfinder.com/data/icons/vivid/48/industry-128.png" vertex="1" parent="1">
          <mxGeometry x="1670" y="410" width="100" height="100" as="geometry" />
        </mxCell>
        <mxCell id="lukgx9Le6L5EiLMDG1qi-6" style="edgeStyle=orthogonalEdgeStyle;rounded=0;orthogonalLoop=1;jettySize=auto;html=1;entryX=0.75;entryY=1;entryDx=0;entryDy=0;strokeWidth=2;" edge="1" parent="1" source="lukgx9Le6L5EiLMDG1qi-8" target="lukgx9Le6L5EiLMDG1qi-14">
          <mxGeometry relative="1" as="geometry">
            <Array as="points">
              <mxPoint x="1840" y="675" />
              <mxPoint x="1840" y="280" />
            </Array>
          </mxGeometry>
        </mxCell>
        <mxCell id="lukgx9Le6L5EiLMDG1qi-7" value="response" style="edgeLabel;html=1;align=center;verticalAlign=middle;resizable=0;points=[];" vertex="1" connectable="0" parent="lukgx9Le6L5EiLMDG1qi-6">
          <mxGeometry x="0.0005" relative="1" as="geometry">
            <mxPoint as="offset" />
          </mxGeometry>
        </mxCell>
        <mxCell id="lukgx9Le6L5EiLMDG1qi-8" value="&lt;b style=&quot;font-size: 12px;&quot;&gt;Car Contract:&lt;/b&gt;&lt;br&gt;&lt;font style=&quot;font-size: 8px;&quot;&gt;0xfb10b426D952E7cb6740Ad0c832a0F48b652742F&lt;/font&gt;" style="outlineConnect=0;dashed=0;verticalLabelPosition=bottom;verticalAlign=top;align=center;html=1;shape=mxgraph.aws3.car;fillColor=#5294CF;gradientColor=none;" vertex="1" parent="1">
          <mxGeometry x="1680.25" y="635.25" width="79.5" height="79.5" as="geometry" />
        </mxCell>
        <mxCell id="lukgx9Le6L5EiLMDG1qi-9" style="edgeStyle=orthogonalEdgeStyle;rounded=0;orthogonalLoop=1;jettySize=auto;html=1;strokeWidth=2;" edge="1" parent="1" source="lukgx9Le6L5EiLMDG1qi-13" target="lukgx9Le6L5EiLMDG1qi-5">
          <mxGeometry relative="1" as="geometry">
            <Array as="points">
              <mxPoint x="1720" y="369" />
              <mxPoint x="1720" y="369" />
            </Array>
          </mxGeometry>
        </mxCell>
        <mxCell id="lukgx9Le6L5EiLMDG1qi-10" value="retrieveInfo(VIN)" style="edgeLabel;html=1;align=center;verticalAlign=middle;resizable=0;points=[];" vertex="1" connectable="0" parent="lukgx9Le6L5EiLMDG1qi-9">
          <mxGeometry x="-0.2115" y="-2" relative="1" as="geometry">
            <mxPoint as="offset" />
          </mxGeometry>
        </mxCell>
        <mxCell id="lukgx9Le6L5EiLMDG1qi-11" style="edgeStyle=orthogonalEdgeStyle;rounded=0;orthogonalLoop=1;jettySize=auto;html=1;exitX=0;exitY=0.75;exitDx=0;exitDy=0;entryX=0;entryY=0.5;entryDx=0;entryDy=0;strokeWidth=2;" edge="1" parent="1" source="lukgx9Le6L5EiLMDG1qi-13" target="lukgx9Le6L5EiLMDG1qi-5">
          <mxGeometry relative="1" as="geometry">
            <Array as="points">
              <mxPoint x="1590" y="303" />
              <mxPoint x="1590" y="460" />
            </Array>
          </mxGeometry>
        </mxCell>
        <mxCell id="lukgx9Le6L5EiLMDG1qi-12" value="&lt;font style=&quot;font-size: 12px;&quot;&gt;changeOwner(newOwner)&lt;/font&gt;" style="edgeLabel;html=1;align=center;verticalAlign=middle;resizable=0;points=[];" vertex="1" connectable="0" parent="lukgx9Le6L5EiLMDG1qi-11">
          <mxGeometry x="-0.1717" relative="1" as="geometry">
            <mxPoint as="offset" />
          </mxGeometry>
        </mxCell>
        <mxCell id="lukgx9Le6L5EiLMDG1qi-13" value="" style="shape=image;verticalLabelPosition=bottom;labelBackgroundColor=default;verticalAlign=top;aspect=fixed;imageAspect=0;image=https://cdn-icons-png.flaticon.com/512/1465/1465626.png;" vertex="1" parent="1">
          <mxGeometry x="1671.37" y="230" width="97.25" height="97.25" as="geometry" />
        </mxCell>
        <mxCell id="lukgx9Le6L5EiLMDG1qi-14" value="" style="shape=image;verticalLabelPosition=bottom;labelBackgroundColor=default;verticalAlign=top;aspect=fixed;imageAspect=0;image=https://upload.wikimedia.org/wikipedia/commons/thumb/3/36/MetaMask_Fox.svg/1200px-MetaMask_Fox.svg.png;" vertex="1" parent="1">
          <mxGeometry x="1721.38" y="210" width="70" height="70" as="geometry" />
        </mxCell>
        <mxCell id="lukgx9Le6L5EiLMDG1qi-15" style="edgeStyle=orthogonalEdgeStyle;rounded=0;orthogonalLoop=1;jettySize=auto;html=1;strokeWidth=2;" edge="1" parent="1" source="lukgx9Le6L5EiLMDG1qi-19" target="lukgx9Le6L5EiLMDG1qi-13">
          <mxGeometry relative="1" as="geometry" />
        </mxCell>
        <mxCell id="lukgx9Le6L5EiLMDG1qi-16" value="&lt;font style=&quot;font-size: 12px;&quot;&gt;retrieveInfo(VIN)&lt;/font&gt;" style="edgeLabel;html=1;align=center;verticalAlign=middle;resizable=0;points=[];" vertex="1" connectable="0" parent="lukgx9Le6L5EiLMDG1qi-15">
          <mxGeometry x="-0.2561" y="1" relative="1" as="geometry">
            <mxPoint as="offset" />
          </mxGeometry>
        </mxCell>
        <mxCell id="lukgx9Le6L5EiLMDG1qi-17" style="edgeStyle=orthogonalEdgeStyle;rounded=0;orthogonalLoop=1;jettySize=auto;html=1;exitX=0;exitY=0.5;exitDx=0;exitDy=0;entryX=0;entryY=0.5;entryDx=0;entryDy=0;strokeWidth=2;" edge="1" parent="1" source="lukgx9Le6L5EiLMDG1qi-19" target="lukgx9Le6L5EiLMDG1qi-13">
          <mxGeometry relative="1" as="geometry">
            <Array as="points">
              <mxPoint x="1590" y="83" />
              <mxPoint x="1590" y="279" />
            </Array>
          </mxGeometry>
        </mxCell>
        <mxCell id="lukgx9Le6L5EiLMDG1qi-18" value="changeOwner(newOwner)" style="edgeLabel;html=1;align=center;verticalAlign=middle;resizable=0;points=[];" vertex="1" connectable="0" parent="lukgx9Le6L5EiLMDG1qi-17">
          <mxGeometry x="-0.1068" relative="1" as="geometry">
            <mxPoint as="offset" />
          </mxGeometry>
        </mxCell>
        <mxCell id="lukgx9Le6L5EiLMDG1qi-19" value="" style="image;aspect=fixed;perimeter=ellipsePerimeter;html=1;align=center;shadow=0;dashed=0;fontColor=#4277BB;labelBackgroundColor=default;fontSize=12;spacingTop=3;image=img/lib/ibm/users/user.svg;" vertex="1" parent="1">
          <mxGeometry x="1676.99" y="40" width="86" height="86" as="geometry" />
        </mxCell>
        <mxCell id="lukgx9Le6L5EiLMDG1qi-20" value="&lt;b&gt;User&lt;/b&gt;" style="text;html=1;strokeColor=none;fillColor=none;align=center;verticalAlign=middle;whiteSpace=wrap;rounded=0;" vertex="1" parent="1">
          <mxGeometry x="1688.62" y="20" width="60" height="30" as="geometry" />
        </mxCell>
      </root>
    </mxGraphModel>
  </diagram>
</mxfile>
